<?xml version="1.0" standalone="no"?>
<!DOCTYPE svg PUBLIC "-//W3C//DTD SVG 20010904//EN"
 "http://www.w3.org/TR/2001/REC-SVG-20010904/DTD/svg10.dtd">
<svg version="1.0" xmlns="http://www.w3.org/2000/svg"
 width="1024.000000pt" height="1024.000000pt" viewBox="0 0 1024.000000 1024.000000"
 preserveAspectRatio="xMidYMid meet">
<metadata>
Created by potrace 1.14, written by Peter Selinger 2001-2017
</metadata>
<g transform="translate(0.000000,1024.000000) scale(0.100000,-0.100000)"
fill="#000000" stroke="none">
<path d="M2172 8277 c-47 -18 -99 -63 -121 -105 -42 -82 -44 -68 153 -972 204
-931 204 -931 295 -1012 88 -79 -71 -73 1921 -69 1331 3 1796 1 1827 -8 53
-14 98 -52 124 -102 11 -22 44 -159 75 -306 63 -308 75 -358 111 -468 122
-380 331 -601 638 -676 124 -30 316 -30 429 0 303 80 515 323 577 661 16 85
16 289 0 365 -103 497 -419 823 -901 932 -68 15 -225 17 -1655 22 -1566 6
-1580 6 -1615 26 -19 12 -43 35 -53 52 -11 19 -86 342 -183 785 -180 824 -179
820 -259 865 l-40 23 -645 -1 c-470 0 -654 -4 -678 -12z"/>
<path d="M2713 5700 c-318 -40 -573 -274 -657 -603 -113 -442 91 -958 479
-1209 114 -75 252 -131 405 -165 68 -15 225 -17 1655 -22 1566 -6 1580 -6
1615 -26 19 -12 43 -35 53 -52 11 -19 86 -340 183 -785 180 -824 179 -820 259
-865 l40 -23 639 0 c450 0 650 3 677 11 49 15 105 62 128 108 42 81 44 68
-154 971 -204 931 -203 931 -294 1012 -88 79 71 73 -1921 69 -1331 -3 -1796
-1 -1827 8 -53 14 -98 52 -124 102 -11 22 -44 159 -75 306 -63 308 -75 358
-111 468 -144 447 -410 677 -808 699 -49 2 -123 0 -162 -4z"/>
</g>
</svg>
