<svg width="300" height="41" viewBox="0 0 300 41" fill="none" xmlns="http://www.w3.org/2000/svg">
<g clip-path="url(#clip0_96_914)">
<path d="M50.5178 25.1182H51.0215C51.9027 25.1182 51.9221 24.6242 51.9221 22.2651V15.9333C51.9221 13.5756 51.9013 13.0789 51.0007 13.0789H50.5178V12.5446H56.1961V13.0789H55.7174C54.8182 13.0789 54.7974 13.5743 54.7974 15.9333V18.5643H59.4321V15.9333C59.4321 13.5756 59.4127 13.0789 58.5121 13.0789H58.0334V12.5446H63.7116V13.0789H63.2315C62.3295 13.0789 62.3101 13.5743 62.3101 15.9333V22.2651C62.3101 24.6228 62.3295 25.1182 63.2121 25.1182H63.7116V25.6566H58.0334V25.1182H58.5121C59.4127 25.1182 59.4321 24.6242 59.4321 22.2651V19.2026H54.7974V22.2651C54.7974 24.6228 54.8182 25.1182 55.7174 25.1182H56.1961V25.6566H50.5178V25.1182Z" fill="white"/>
<path d="M67.7872 21.0315C67.7872 17.3653 68.599 16.7589 69.5745 16.7589C70.5528 16.7589 71.366 17.3667 71.366 21.0315C71.366 24.2356 70.8859 25.3305 69.5745 25.3305C68.266 25.3305 67.7872 24.2356 67.7872 21.0315ZM65.0244 21.0315C65.0244 23.9178 66.6466 25.9563 69.5745 25.9563C72.5053 25.9563 74.1274 23.9178 74.1274 21.0315C74.1274 18.1688 72.5053 16.1192 69.5745 16.1192C66.6466 16.1192 65.0244 18.1688 65.0244 21.0315Z" fill="white"/>
<path d="M78.6621 19.3719C78.6621 18.3353 78.7163 16.7589 80.1345 16.7589C81.4888 16.7589 81.4888 18.5573 81.4888 19.4843C81.4888 20.3918 81.3389 21.767 80.1247 21.767C78.7163 21.767 78.6621 20.4293 78.6621 19.3719ZM79.3712 23.718C78.4318 23.718 78.0266 23.582 78.0266 23.1435C78.0266 22.7508 78.2819 22.4039 78.8911 22.4039C81.2834 22.4039 84.1489 22.4039 84.1489 19.1943C84.1489 18.2507 83.7215 17.5818 82.8515 16.8422C83.1679 16.7298 83.3899 16.6576 83.6674 16.6576C84.1253 16.6576 83.8131 17.6332 84.9205 17.6332C85.5463 17.6332 85.8585 17.1391 85.8585 16.5841C85.8585 15.9791 85.5269 15.4268 84.8636 15.4268C83.9796 15.4212 83.2414 16.3426 82.2451 16.3426C81.8204 16.3399 81.0267 16.1192 80.029 16.1192C78.0141 16.1192 76.002 17.0365 76.002 19.3344C76.002 20.6888 76.8526 21.7281 78.0918 22.0903V22.1278V22.107C77.2009 22.3817 76.65 23.1352 76.65 24.0746C76.65 24.7615 76.9831 25.3763 77.756 25.6538V25.694C76.8138 25.7912 75.6038 26.4475 75.6038 27.5729C75.6038 29.5864 78.2139 29.95 79.7459 29.95C81.9564 29.95 84.8816 29.1118 84.8816 26.435C84.8816 24.1121 82.9361 23.7166 81.5554 23.7166L79.3712 23.718ZM80.3148 25.9133C81.4042 25.9133 83.1928 25.9508 83.1928 27.4397C83.1928 28.8551 81.4028 29.3186 80.2246 29.3186C79.0812 29.3186 77.2911 29.0605 77.2911 27.5979C77.2911 25.9508 79.0812 25.9133 80.3148 25.9133Z" fill="white"/>
<path d="M89.4123 20.5361C89.4123 18.7197 89.4845 16.7589 91.0123 16.7589C92.3736 16.7589 92.3736 18.5351 92.3736 20.5361H89.4123ZM95.2502 21.0704C95.2502 18.2062 94.1637 16.1206 91.0859 16.1206C88.1551 16.1206 86.533 18.1702 86.533 21.0357C86.533 23.9192 88.1551 25.9577 91.0859 25.9577C93.3963 25.9577 94.8353 24.7754 95.074 22.5024L94.2566 22.4927C94.2178 23.9581 93.277 25.3319 91.6756 25.3319C89.5747 25.3319 89.4123 23.385 89.4123 21.5325V21.0718L95.2502 21.0704Z" fill="white"/>
<path d="M96.7795 22.6426H97.3707C97.7398 24.2148 98.6071 25.3319 100.342 25.3319C101.281 25.3319 102.182 24.774 102.182 23.8221C102.182 22.6426 101.26 22.3817 99.4924 21.9737C98.1283 21.6587 96.7795 21.198 96.7795 19.2956C96.7795 17.092 98.3864 16.1206 100.417 16.1303C101.246 16.1303 101.835 16.4259 102.444 16.4259C102.941 16.4259 103.218 16.2774 103.439 16.1206H103.55V19.0819H102.959C102.774 17.8677 101.778 16.7575 100.487 16.7575C99.5854 16.7575 98.664 17.092 98.664 18.2243C98.664 19.1637 99.1455 19.2956 101.281 19.7965C102.917 20.1642 104.17 20.6846 104.17 22.8285C104.17 25.0529 102.348 25.9563 100.414 25.9535C99.5493 25.9535 98.6071 25.6552 97.8147 25.6552C97.4456 25.6552 97.0737 25.8314 96.8905 25.9563H96.7795V22.6426Z" fill="white"/>
<path d="M113.807 22.5801C113.548 24.8573 112.277 25.9549 109.997 25.9549C107.009 25.9549 105.644 23.7166 105.644 20.9441C105.644 17.4611 108.133 16.1206 110.344 16.1206C112.889 16.1206 113.648 17.4985 113.648 18.1494C113.648 19.0333 113.184 19.6439 112.221 19.6439C111.468 19.6439 110.988 19.1054 110.988 18.3686C110.988 17.8316 111.249 17.74 111.249 17.5166C111.249 17.11 110.616 16.7575 110.195 16.7575C108.609 16.7575 108.519 18.9972 108.519 21.162C108.519 22.6245 108.5 25.3319 110.545 25.3319C112.221 25.3319 112.865 24.0802 112.994 22.5704L113.807 22.5801Z" fill="white"/>
<path d="M114.819 25.1181H115.446C115.999 25.1181 116.182 24.8809 116.182 23.8706V13.7158C116.182 12.7056 115.999 12.4697 115.446 12.4697H114.819V11.9299H118.839V17.665H118.877C119.411 16.7658 120.385 16.122 121.749 16.122C123.557 16.122 124.442 17.2016 124.442 18.7363V23.872C124.442 24.8836 124.627 25.1195 125.181 25.1195H125.587V25.6579H120.643V25.1195H121.05C121.599 25.1195 121.784 24.8822 121.784 23.872V19.2164C121.784 18.3117 121.784 17.2571 120.604 17.2571C118.839 17.2571 118.839 19.29 118.839 20.4362V23.8734C118.839 24.885 119.025 25.1209 119.577 25.1209H119.981V25.6593H114.818L114.819 25.1181Z" fill="white"/>
<path d="M129.579 21.0315C129.579 17.3653 130.388 16.7589 131.365 16.7589C132.345 16.7589 133.154 17.3667 133.154 21.0315C133.154 24.2356 132.677 25.3305 131.365 25.3305C130.057 25.3305 129.579 24.2356 129.579 21.0315ZM126.817 21.0315C126.817 23.9178 128.436 25.9563 131.365 25.9563C134.296 25.9563 135.918 23.9178 135.918 21.0315C135.918 18.1688 134.296 16.1192 131.365 16.1192C128.436 16.1192 126.817 18.1688 126.817 21.0315Z" fill="white"/>
<path d="M140.158 21.0315C140.158 17.3653 140.969 16.7589 141.946 16.7589C142.925 16.7589 143.734 17.3667 143.734 21.0315C143.734 24.2356 143.252 25.3305 141.946 25.3305C140.636 25.3305 140.158 24.2356 140.158 21.0315ZM137.395 21.0315C137.395 23.9178 139.014 25.9563 141.946 25.9563C144.873 25.9563 146.494 23.9178 146.494 21.0315C146.494 18.1688 144.873 16.1192 141.946 16.1192C139.014 16.1192 137.395 18.1688 137.395 21.0315Z" fill="white"/>
<path d="M147.464 25.1181H148.089C148.642 25.1181 148.828 24.8809 148.828 23.8748V13.7186C148.828 12.707 148.642 12.4697 148.089 12.4697H147.464V11.9299H151.488V23.8748C151.488 24.8822 151.674 25.1181 152.222 25.1181H152.852V25.6566H147.462L147.464 25.1181Z" fill="white"/>
<path d="M167.43 16.956C166.75 16.956 166.544 17.5277 166.248 18.2326L164.003 23.6806C163.725 24.355 163.467 25.0641 163.248 25.7815H162.013C161.847 25.3041 161.681 24.7893 161.495 24.3175L159.046 18.1785C158.733 17.3806 158.676 16.956 158.144 16.956H157.832V16.4203H162.876V16.956H162.25C161.938 16.956 161.624 17.0323 161.624 17.3626C161.624 17.4542 161.681 17.6776 161.792 17.9898L163.596 22.6967H163.632L165.459 18.0841C165.549 17.8233 165.604 17.6207 165.604 17.4555C165.604 17.1433 165.291 16.9574 164.959 16.9574H164.515V16.4217H167.429L167.43 16.956Z" fill="white"/>
<path d="M173.772 23.1435C173.772 24.7338 172.815 25.0502 172.336 25.0502C171.395 25.0502 171.068 24.1968 171.068 23.3683C171.068 21.7253 171.728 20.7318 173.221 20.7318C173.385 20.7318 173.533 20.7512 173.772 20.8081V23.1435ZM177.483 23.1088C177.483 23.9525 177.483 24.9225 176.893 24.9225C176.596 24.9225 176.428 24.7255 176.428 24.2314V18.7294C176.428 16.5771 174.415 16.1206 172.651 16.1206C171.351 16.1206 168.939 16.5036 168.939 18.2465C168.939 19.0819 169.488 19.6203 170.32 19.6203C171.038 19.6203 171.703 19.154 171.703 18.3769C171.703 17.8552 171.296 17.5207 171.296 17.3154C171.296 16.8339 172.139 16.7603 172.543 16.7603C173.513 16.7603 173.771 17.4472 173.771 18.2687V20.217C173.495 20.1975 173.236 20.1975 172.963 20.1975C170.956 20.1975 168.305 21.0079 168.305 23.3822C168.305 25.0765 169.61 25.9521 171.191 25.9521C172.204 25.9521 173.349 25.6371 173.88 24.7255C174.193 25.5775 175.156 25.9521 175.894 25.9521C178.16 25.9521 178.179 24.3314 178.179 23.1088H177.483Z" fill="white"/>
<path d="M178.845 25.1182H179.468C180.022 25.1182 180.205 24.8809 180.205 23.8707V18.2118C180.205 17.196 180.022 16.9574 179.468 16.9574H178.845V16.4217H180.78C181.464 16.4217 182.128 16.2927 182.757 16.1206V17.7539H182.792C183.529 16.7104 184.411 16.1206 185.772 16.1206C187.585 16.1206 188.469 17.2002 188.469 18.7349V23.8707C188.469 24.8823 188.655 25.1182 189.206 25.1182H189.609V25.6566H184.671V25.1182H185.076C185.625 25.1182 185.809 24.8809 185.809 23.8707V19.2151C185.809 18.3103 185.809 17.2557 184.632 17.2557C182.863 17.2557 182.863 19.2886 182.863 20.4431V23.872C182.863 24.8836 183.05 25.1195 183.599 25.1195H184.005V25.658H178.843V25.1182H178.845Z" fill="white"/>
<path d="M202.333 20.7748H198.112L200.303 15.51L202.333 20.7748ZM202.295 25.6538H208.194V25.1167H207.809C207.09 25.1167 206.796 24.3827 206.572 23.7929L203.163 14.9771C202.831 14.1348 202.553 13.2856 202.318 12.3683H200.676C200.453 13.1551 200.176 13.8559 199.884 14.5539L196.287 23.1837C195.678 24.6422 195.331 25.1167 194.39 25.1167V25.6538H198.372V25.1167H197.873C197.246 25.1001 196.875 24.8434 196.875 24.3438C196.875 23.8887 197.1 23.2184 197.358 22.5926L197.853 21.4075H202.573L203.052 22.6495C203.383 23.4973 203.677 24.2217 203.677 24.5658C203.677 25.1001 203.127 25.1001 202.295 25.1153V25.6538Z" fill="white"/>
<path d="M208.377 25.1182H209.003C209.555 25.1182 209.741 24.8809 209.741 23.8707V18.2118C209.741 17.196 209.555 16.9574 209.003 16.9574H208.377V16.4217H210.313C210.996 16.4217 211.663 16.2927 212.292 16.1206V17.7539H212.327C213.063 16.7104 213.945 16.1206 215.307 16.1206C216.562 16.1206 217.486 16.5799 217.836 17.7539C218.627 16.616 219.386 16.1206 220.912 16.1206C222.717 16.1206 223.605 17.2002 223.605 18.7349V23.8707C223.605 24.8823 223.79 25.1182 224.342 25.1182H224.749V25.6566H219.805V25.1182H220.208C220.761 25.1182 220.947 24.8809 220.947 23.8707V19.2151C220.947 18.3103 220.947 17.2557 219.767 17.2557C217.999 17.2557 217.999 19.2886 217.999 20.4348V23.872C217.999 24.8836 218.184 25.1195 218.738 25.1195H219.144V25.658H214.2V25.1195H214.606C215.16 25.1195 215.343 24.8823 215.343 23.872V19.2165C215.343 18.3117 215.343 17.2571 214.164 17.2571C212.397 17.2571 212.397 19.29 212.397 20.4445V23.8734C212.397 24.885 212.582 25.1209 213.134 25.1209H213.538V25.6593H208.375V25.1182H208.377Z" fill="white"/>
<path d="M225.831 22.6426H226.424C226.794 24.2148 227.662 25.3319 229.393 25.3319C230.334 25.3319 231.236 24.774 231.236 23.8221C231.236 22.6426 230.315 22.3817 228.546 21.9737C227.18 21.6587 225.833 21.198 225.833 19.2956C225.833 17.092 227.441 16.1206 229.47 16.1303C230.301 16.1303 230.887 16.4259 231.497 16.4259C231.995 16.4259 232.27 16.2774 232.496 16.1206H232.604V19.0819H232.012C231.832 17.8677 230.832 16.7575 229.539 16.7575C228.639 16.7575 227.719 17.092 227.719 18.2243C227.719 19.1637 228.196 19.2956 230.334 19.7965C231.974 20.1642 233.223 20.6846 233.223 22.8285C233.223 25.0529 231.401 25.9563 229.467 25.9535C228.602 25.9535 227.662 25.6552 226.868 25.6552C226.496 25.6552 226.131 25.8314 225.944 25.9563H225.833V22.6426H225.831Z" fill="white"/>
<path d="M240.255 16.956H238.327V22.9049C238.327 24.0136 238.327 24.824 239.174 24.824C239.869 24.824 239.98 24.1412 240.001 23.496V22.9049H240.693V23.3087C240.693 25.1515 239.965 25.9563 238.294 25.9563C236.39 25.9563 235.668 24.7921 235.668 23.5459V16.956H234.378V16.4203C236.203 16.3093 237.367 14.5428 237.774 12.8804H238.326V16.4203H240.253L240.255 16.956Z" fill="white"/>
<path d="M244.745 20.5361C244.745 18.7197 244.817 16.7589 246.345 16.7589C247.705 16.7589 247.705 18.5351 247.705 20.5361H244.745ZM250.586 21.0704C250.586 18.2062 249.495 16.1206 246.416 16.1206C243.489 16.1206 241.863 18.1702 241.863 21.0357C241.863 23.9192 243.489 25.9577 246.416 25.9577C248.729 25.9577 250.165 24.7754 250.405 22.5024L249.589 22.4927C249.549 23.9581 248.608 25.3319 247.01 25.3319C244.907 25.3319 244.745 23.385 244.745 21.5325V21.0718L250.586 21.0704Z" fill="white"/>
<path d="M255.744 23.8693C255.744 24.8809 255.925 25.1168 256.481 25.1168H257.328V25.6524H251.719V25.1168H252.345C252.898 25.1168 253.081 24.8795 253.081 23.8693V18.2104C253.081 17.1974 252.898 16.956 252.345 16.956H251.719V16.4217H253.657C254.338 16.4217 255.004 16.2913 255.633 16.1192V18.2159H255.708C256.111 17.2751 256.943 16.2621 258.175 16.2621C259.041 16.2621 260.018 16.6312 260.018 17.8135C260.018 18.6794 259.447 19.1401 258.472 19.1401C258.029 19.1401 257.253 18.9209 257.253 17.9551C257.253 17.6082 257.253 17.5138 257.036 17.5138C256.517 17.5138 255.744 18.7113 255.744 20.6818V23.8693Z" fill="white"/>
<path d="M263.853 20.7748C263.853 19.8825 263.853 17.0351 265.248 17.0351C266.992 17.0351 267.138 19.5884 267.138 20.8483C267.138 22.0681 267.121 25.0488 265.264 25.0488C263.853 25.0488 263.853 21.6795 263.853 20.7748ZM267.306 25.6538H271.18V25.1168H270.592C270.113 25.1168 269.856 24.96 269.856 23.8485V11.9313H265.893V12.4683H266.462C267.16 12.4683 267.193 12.7958 267.193 13.6978V17.629H267.16C266.591 16.5993 265.728 16.1206 264.551 16.1206C261.862 16.1206 260.977 18.6989 260.977 21.0634C260.977 23.31 261.935 25.9549 264.514 25.9549C265.801 25.9549 266.849 25.5053 267.272 24.3216H267.306V25.6538Z" fill="white"/>
<path d="M277.699 23.1435C277.699 24.7338 276.744 25.0502 276.266 25.0502C275.326 25.0502 274.993 24.1968 274.993 23.3683C274.993 21.7253 275.658 20.7318 277.148 20.7318C277.313 20.7318 277.46 20.7512 277.699 20.8081V23.1435ZM281.412 23.1088C281.412 23.9525 281.412 24.9225 280.823 24.9225C280.524 24.9225 280.359 24.7255 280.359 24.2314V18.7294C280.359 16.5771 278.346 16.1206 276.581 16.1206C275.279 16.1206 272.867 16.5036 272.867 18.2465C272.867 19.0819 273.419 19.6203 274.249 19.6203C274.968 19.6203 275.631 19.154 275.631 18.3769C275.631 17.8552 275.225 17.5207 275.225 17.3154C275.225 16.8339 276.067 16.7603 276.471 16.7603C277.442 16.7603 277.698 17.4472 277.698 18.2687V20.217C277.426 20.1975 277.167 20.1975 276.891 20.1975C274.883 20.1975 272.23 21.0079 272.23 23.3822C272.23 25.0765 273.54 25.9521 275.122 25.9521C276.135 25.9521 277.277 25.6371 277.811 24.7255C278.124 25.5775 279.085 25.9521 279.822 25.9521C282.09 25.9521 282.106 24.3314 282.106 23.1088H281.412Z" fill="white"/>
<path d="M282.774 25.1182H283.397C283.955 25.1182 284.135 24.8809 284.135 23.8707V18.2118C284.135 17.196 283.955 16.9574 283.397 16.9574H282.774V16.4217H284.71C285.392 16.4217 286.06 16.2927 286.687 16.1206V17.7539H286.723C287.46 16.7104 288.344 16.1206 289.701 16.1206C290.958 16.1206 291.882 16.5799 292.232 17.7539C293.024 16.616 293.776 16.1206 295.306 16.1206C297.114 16.1206 298.002 17.2002 298.002 18.7349V23.8707C298.002 24.8823 298.191 25.1182 298.739 25.1182H299.145V25.6566H294.2V25.1182H294.606C295.161 25.1182 295.345 24.8809 295.345 23.8707V19.2151C295.345 18.3103 295.345 17.2557 294.166 17.2557C292.397 17.2557 292.397 19.2886 292.397 20.4348V23.872C292.397 24.8836 292.582 25.1195 293.135 25.1195H293.538V25.658H288.599V25.1195H289.002C289.552 25.1195 289.74 24.8823 289.74 23.872V19.2165C289.74 18.3117 289.74 17.2571 288.56 17.2571C286.794 17.2571 286.794 19.29 286.794 20.4445V23.8734C286.794 24.885 286.976 25.1209 287.531 25.1209H287.934V25.6593H282.771V25.1182H282.774Z" fill="white"/>
<path d="M21.9518 9.88445C27.6425 9.88445 32.9614 11.4164 37.5379 14.0904L42.4252 5.73398C36.4167 2.20934 29.4215 0.200012 21.9518 0.200012C14.489 0.200012 7.50212 2.20934 1.49219 5.73398L6.37812 14.0904C10.9574 11.4164 16.2832 9.88445 21.9518 9.88445Z" fill="white"/>
<path d="M26.4699 14.4818C24.4855 14.461 18.4659 14.3444 10.7269 17.9218C9.74032 18.3797 9.04233 18.7613 8.87442 18.5185C8.54139 17.9898 11.0017 15.9 13.641 14.3722C14.5957 13.8046 15.1411 13.3092 14.9274 12.8874C14.6096 12.2726 12.7182 12.1464 7.44098 14.8467C4.73783 16.3551 2.29278 18.284 0.200195 20.5292L1.06054 21.3423C1.9084 20.4445 2.82286 19.6133 3.75537 18.7988C4.37842 18.259 7.26336 16.1026 7.51591 16.7534C7.61305 17.0142 7.42849 17.3945 6.40717 18.7904C5.5163 20.0255 4.93071 21.18 5.35256 21.5325C5.77302 21.8891 6.2809 21.6865 7.48399 21.0232C8.37626 20.5306 11.2071 19.0305 15.6698 17.6886C20.1325 16.3565 21.2176 16.863 21.3258 17.1891C21.4618 17.6276 19.4067 18.3547 18.1953 18.9556C17.1809 19.4746 13.6008 21.5782 11.6581 23.1435C11.6581 23.1435 13.5411 26.3754 13.5494 26.3754C15.5532 25.1959 23.1881 23.2642 24.004 24.6602C24.8991 26.1922 16.7743 31.9024 16.7743 31.9024L21.9517 40.8C21.9517 40.8 33.7315 27.2704 31.854 24.3022C29.9598 21.3493 22.8689 21.896 20.0714 22.1611C19.3026 22.2291 18.4007 22.397 18.2106 22.0167C17.9996 21.5963 18.2425 19.9061 27.6966 17.6664C29.7989 17.1738 30.6176 16.9157 30.5024 15.986C30.4053 15.1881 28.4556 14.4957 26.4699 14.4818Z" fill="white"/>
</g>
<defs>
<clipPath id="clip0_96_914">
<rect width="300" height="41" fill="white"/>
</clipPath>
</defs>
</svg>
