<svg width="774" height="774" viewBox="0 0 774 774" fill="none" xmlns="http://www.w3.org/2000/svg">
<circle cx="386.949" cy="386.935" r="363.281" fill="#343434" stroke="white" stroke-width="45.288"/>
<path d="M561.826 553.789C558.675 540.448 551.737 528.416 541.014 517.693C525.104 501.783 506.884 493.606 486.354 493.162C465.824 492.718 443.108 500.708 418.206 517.132L379.282 542.281C374.971 545.276 370.613 546.317 366.207 545.404C361.801 544.492 357.378 541.816 352.939 537.376L205.596 390.033C201.29 385.727 196.001 383.58 189.729 383.591C183.456 383.603 178.112 385.817 173.695 390.233C169.415 394.514 167.274 399.785 167.275 406.045C167.275 412.306 169.428 417.589 173.734 421.895L377.171 625.331C392.258 640.419 407.565 650.723 423.093 656.244C438.621 661.765 453.602 663.86 468.037 662.529C482.471 661.198 495.561 657.654 507.306 651.898C519.052 646.142 528.684 639.504 536.203 631.985C547.862 620.326 555.835 607.714 560.121 594.149C564.409 580.584 564.977 567.131 561.826 553.789Z" fill="white"/>
<path d="M218.775 223.113C221.926 236.454 228.863 248.486 239.587 259.209C255.497 275.119 273.717 283.296 294.247 283.741C314.777 284.184 337.493 276.194 362.395 259.77L401.319 234.621C405.629 231.627 409.988 230.586 414.394 231.498C418.8 232.411 423.223 235.087 427.662 239.526L575.005 386.87C579.311 391.175 584.6 393.323 590.872 393.311C597.144 393.3 602.489 391.086 606.906 386.669C611.186 382.388 613.326 377.118 613.326 370.857C613.326 364.597 611.173 359.314 606.867 355.008L403.43 151.571C388.343 136.484 373.036 126.18 357.508 120.659C341.98 115.137 326.999 113.042 312.564 114.373C298.129 115.705 285.04 119.249 273.295 125.005C261.549 130.761 251.917 137.398 244.398 144.918C232.739 156.576 224.766 169.188 220.479 182.754C216.192 196.318 215.624 209.772 218.775 223.113Z" fill="white"/>
<path d="M307.7 426.183L465.641 349.523" stroke="white" stroke-width="45.288" stroke-linecap="round"/>
</svg>
