<?xml version="1.0" standalone="no"?>
<!DOCTYPE svg PUBLIC "-//W3C//DTD SVG 20010904//EN"
 "http://www.w3.org/TR/2001/REC-SVG-20010904/DTD/svg10.dtd">
<svg version="1.0" xmlns="http://www.w3.org/2000/svg"
 width="774.000000pt" height="774.000000pt" viewBox="0 0 774.000000 774.000000"
 preserveAspectRatio="xMidYMid meet">
<metadata>
Created by potrace 1.14, written by Peter Selinger 2001-2017
</metadata>
<g transform="translate(0.000000,774.000000) scale(0.100000,-0.100000)"
fill="#000000" stroke="none">
<path d="M3615 7730 c-1112 -82 -2102 -604 -2787 -1470 -862 -1089 -1066
-2590 -527 -3874 469 -1117 1425 -1948 2589 -2250 974 -253 2024 -115 2886
380 456 261 859 614 1166 1020 435 577 681 1199 770 1949 19 168 17 636 -5
815 -96 781 -377 1439 -873 2048 -102 125 -371 394 -496 496 -535 437 -1119
709 -1780 830 -279 52 -679 75 -943 56z m-249 -1145 c219 -38 380 -116 569
-276 124 -105 2151 -2140 2171 -2179 11 -22 18 -58 18 -97 0 -79 -37 -144
-107 -187 -40 -25 -59 -30 -110 -30 -39 0 -75 7 -97 18 -19 10 -384 366 -810
791 -426 425 -786 779 -800 786 -42 21 -89 28 -128 17 -20 -6 -153 -86 -297
-178 -143 -92 -300 -188 -350 -212 -329 -165 -601 -170 -863 -17 -31 19 -105
81 -163 139 -93 93 -111 116 -152 200 -106 217 -102 450 10 675 194 387 673
625 1109 550z m1374 -2136 c88 -40 132 -106 133 -198 0 -69 -27 -127 -80 -171
-21 -17 -400 -207 -843 -422 -876 -425 -861 -419 -954 -384 -57 22 -121 91
-136 147 -23 83 12 188 77 235 23 17 1532 754 1638 800 44 19 114 16 165 -7z
m-2752 -568 c21 -11 365 -348 777 -761 407 -408 766 -762 798 -785 69 -52 124
-65 180 -41 20 8 146 85 279 172 134 86 283 179 333 205 119 64 277 115 397
130 245 30 485 -63 669 -259 88 -94 140 -178 176 -287 24 -71 27 -95 27 -220
0 -133 -1 -145 -33 -237 -44 -128 -116 -243 -218 -349 -136 -141 -312 -244
-508 -296 -90 -24 -117 -27 -270 -27 -142 1 -183 4 -247 22 -170 47 -309 118
-447 229 -42 34 -556 542 -1143 1130 l-1066 1068 -12 58 c-9 47 -9 66 4 110
17 59 69 120 120 143 47 20 140 18 184 -5z"/>
</g>
</svg>
