<svg width="1024" height="1024" viewBox="0 0 1024 1024" fill="none" xmlns="http://www.w3.org/2000/svg">
<path d="M281.91 80.6956L124.456 80.6955C113.289 80.6955 104.565 84.5342 98.2834 92.2117C92.002 99.8892 89.978 109.172 92.2115 120.06L139.113 334.885C145.255 362.524 159.911 376.343 183.083 376.343L648.747 375.504C669.964 373.55 682.526 382.205 686.435 401.468L700.254 468.051C709.187 509.928 724.123 540.917 745.062 561.017C766 581.118 792.243 591.168 823.788 591.168C855.894 591.168 882.067 580.071 902.307 557.877C922.547 535.681 932.667 507.135 932.667 472.239C932.667 456.884 929.666 440.413 923.664 422.825C917.662 405.236 908.1 388.486 894.978 372.573C881.858 356.66 864.619 343.748 843.262 333.837C821.904 323.927 796.011 318.971 765.581 318.971L382.413 318.971C371.526 318.971 364.198 317.436 360.429 314.366C356.66 311.294 353.659 304.734 351.426 294.683L309.549 103.309C307.874 96.3294 304.594 90.8155 299.707 86.7675C294.822 82.7195 288.89 80.6956 281.91 80.6956Z" fill="#FF3B30"/>
<path d="M742.09 943.305L899.544 943.305C910.711 943.305 919.435 939.466 925.717 931.788C931.998 924.111 934.022 914.828 931.789 903.94L884.887 689.115C878.745 661.476 864.089 647.657 840.917 647.657L375.253 648.496C354.036 650.45 341.474 641.796 337.565 622.532L323.746 555.95C314.813 514.072 299.877 483.084 278.938 462.983C258 442.883 231.757 432.832 200.212 432.832C168.106 432.832 141.933 443.93 121.693 466.124C101.453 488.319 91.3327 516.865 91.3327 551.761C91.3327 567.116 94.3339 583.588 100.336 601.176C106.338 618.764 115.9 635.514 129.022 651.427C142.142 667.34 159.381 680.252 180.738 690.163C202.096 700.074 227.989 705.029 258.419 705.029L641.587 705.029C652.474 705.029 659.802 706.564 663.571 709.634C667.34 712.706 670.341 719.267 672.574 729.317L714.451 920.691C716.126 927.671 719.407 933.185 724.293 937.233C729.178 941.281 735.11 943.305 742.09 943.305Z" fill="#FF3B30"/>
</svg>
